<svg width="39" height="44" viewBox="0 0 39 44" fill="none" xmlns="http://www.w3.org/2000/svg">
<path d="M15.7402 0.831227C16.1807 0.637834 16.9541 0.401466 17.459 0.294025C17.9639 0.186585 18.834 0.100633 19.3926 0.100633C19.9512 0.0898889 20.8213 0.165097 21.3262 0.261793C21.8311 0.35849 22.6045 0.57337 23.0449 0.745275C23.4854 0.917179 24.2266 1.27173 24.6885 1.54033C25.1397 1.80893 25.8594 2.34614 26.2783 2.74366C26.708 3.15194 27.2559 3.74286 27.5029 4.06518C27.7607 4.3875 28.1582 5.0214 28.3945 5.4619C28.6309 5.90241 28.9531 6.66523 29.1035 7.14872C29.2539 7.64294 29.4365 8.51321 29.501 9.08264C29.5977 9.86696 29.5977 10.4042 29.501 11.1777C29.4365 11.7579 29.2539 12.6282 29.1035 13.1117C28.9424 13.6059 28.6738 14.2935 28.4912 14.648C28.3193 15.0026 27.9756 15.5828 27.7285 15.9373C27.4922 16.2919 27.0195 16.8613 26.6758 17.1944C26.332 17.5382 25.7734 18.0217 25.4404 18.2795C25.0967 18.5266 24.4092 18.9349 23.9043 19.182C23.3994 19.4291 22.583 19.7407 22.0781 19.8804C21.3154 20.0845 20.8965 20.1275 19.5 20.1275C18.1035 20.1275 17.6846 20.0845 16.9219 19.8804C16.417 19.7407 15.6006 19.4291 15.0957 19.182C14.5908 18.9349 13.9033 18.5266 13.5703 18.2795C13.2266 18.0217 12.668 17.5382 12.3242 17.1944C11.9805 16.8613 11.5078 16.2919 11.2715 15.9373C11.0244 15.5828 10.6807 15.0026 10.5088 14.648C10.3262 14.2935 10.0576 13.6059 9.89648 13.1117C9.74609 12.6282 9.56348 11.7579 9.49902 11.1777C9.40234 10.4042 9.40234 9.86696 9.49902 9.08264C9.56348 8.51321 9.74609 7.64294 9.89648 7.14872C10.0469 6.66523 10.3691 5.90241 10.6055 5.4619C10.8418 5.0214 11.2393 4.3875 11.4971 4.06518C11.7441 3.74286 12.2812 3.16268 12.6895 2.7759C13.0977 2.38911 13.7744 1.86265 14.1826 1.61554C14.5908 1.36843 15.2998 1.01388 15.7402 0.831227Z" fill="#212025"/>
<path d="M9.6709 21.911C10.1973 21.6102 11.1641 21.1482 11.8193 20.8796C12.4746 20.611 13.0869 20.3961 13.1943 20.3961C13.291 20.3961 13.6992 20.5573 14.1074 20.7614C14.5049 20.9548 15.1709 21.2449 15.5791 21.3953C15.998 21.5457 16.7715 21.7499 17.2979 21.8465C17.8672 21.9647 18.7695 22.0399 19.5 22.0399C20.2305 22.0399 21.1328 21.9647 21.7021 21.8465C22.2285 21.7499 23.002 21.5457 23.4209 21.3953C23.8398 21.2449 24.4951 20.9548 24.9033 20.7614C25.3008 20.5573 25.709 20.3961 25.8164 20.3961C25.9131 20.3961 26.5254 20.611 27.1807 20.8796C27.8359 21.1482 28.8457 21.6424 29.4365 21.9755C30.0273 22.3193 30.9941 22.9532 31.585 23.3937C32.1758 23.8342 33.1426 24.683 33.7441 25.2739C34.335 25.8756 35.1836 26.8425 35.624 27.4334C36.0645 28.0244 36.6768 28.9484 36.9775 29.4748C37.2891 30.0013 37.7295 30.8823 37.9551 31.4087C38.1807 31.9352 38.5029 32.7732 38.9434 34.1485L38.6318 34.546C38.46 34.7716 37.8691 35.3948 37.3105 35.9212C36.7519 36.4477 35.9678 37.1568 35.5488 37.5006C35.1406 37.8337 34.249 38.4783 33.5723 38.9296C32.8955 39.3808 31.6602 40.0899 30.833 40.4874C30.0059 40.8957 28.8457 41.4007 28.2549 41.6156C27.6641 41.8304 26.6543 42.1528 25.999 42.3139C25.3438 42.4751 24.3555 42.69 23.7969 42.7867C23.2383 42.8834 22.293 43.0015 21.7021 43.066C21.1113 43.1197 20.123 43.1627 19.5 43.1627C18.877 43.1627 17.8887 43.1197 17.2979 43.066C16.707 43.0015 15.7617 42.8834 15.2031 42.7867C14.6445 42.69 13.6562 42.4751 13.001 42.3139C12.3457 42.1528 11.3359 41.8304 10.7451 41.6156C10.1543 41.4007 8.99414 40.8957 8.16699 40.4874C7.33984 40.0792 6.10449 39.3808 5.42773 38.9296C4.75098 38.4783 3.85938 37.8337 3.45117 37.5006C3.03223 37.1568 2.24805 36.4477 1.68945 35.9212C1.13086 35.3948 0.540039 34.7716 0.0566406 34.1485L0.335938 33.2567C0.49707 32.7732 0.819336 31.9352 1.04492 31.4087C1.28125 30.8823 1.72168 30.0013 2.02246 29.4748C2.32324 28.9484 2.93555 28.0244 3.37598 27.4334C3.81641 26.8425 4.68652 25.8541 5.30957 25.2309C5.93262 24.6078 6.95312 23.7375 7.57617 23.2862C8.19922 22.835 9.14453 22.2118 9.6709 21.911Z" fill="#212025"/>
</svg>
